<svg xmlns="http://www.w3.org/2000/svg" version="1.1" xmlns:xlink="http://www.w3.org/1999/xlink" width="2000" height="486" viewBox="0 0 2000 486"><svg xml:space="preserve" width="2000" height="486" data-version="2" data-id="lg_ng46ht2YEqveqlN0uo" viewBox="0 0 799 486" x="0" y="0"><rect width="100%" height="100%" fill="transparent"></rect><path d="M277.975 185.9q0 7.36-1.28 12.8h-9.6q1.28 5.12 1.28 12.8 0 7.36-1.28 12.8h-9.6q1.28 5.12 1.28 12.8 0 7.36-1.28 12.8h-6.4q1.28 5.12 1.28 12.8 0 7.36-1.28 12.8h-12.8q1.28 5.12 1.28 12.8 0 7.36-1.28 12.8h-25.6q-1.28-5.44-1.28-12.8 0-7.68 1.28-12.8h-12.8q-1.28-5.44-1.28-12.8 0-7.68 1.28-12.8h-6.4q-1.28-5.44-1.28-12.8 0-7.68 1.28-12.8h-9.6q-1.28-5.44-1.28-12.8 0-7.68 1.28-12.8h-9.6q-1.28-5.44-1.28-12.8 0-7.68 1.28-12.8h25.6q1.28 5.12 1.28 12.8 0 7.36-1.28 12.8h9.6q1.28 5.12 1.28 12.8 0 7.36-1.28 12.8h9.6q1.28 5.12 1.28 12.8 0 7.36-1.28 12.8h12.8q-1.28-5.44-1.28-12.8 0-7.68 1.28-12.8h9.6q-1.28-5.44-1.28-12.8 0-7.68 1.28-12.8h9.6q-1.28-5.44-1.28-12.8 0-7.68 1.28-12.8h25.6q1.28 5.12 1.28 12.8"></path><rect width="104.96" height="128" x="-52.48" y="-64" fill="none" rx="0" ry="0" transform="translate(226 237.6)"></rect><path d="M366.295 147.5h-25.6q-1.28-5.44-1.28-12.8 0-7.68 1.28-12.8h25.6q1.28 5.12 1.28 12.8 0 7.36-1.28 12.8m25.6 128q1.28 5.12 1.28 12.8 0 7.36-1.28 12.8h-76.8q-1.28-5.44-1.28-12.8 0-7.68 1.28-12.8h25.6q-1.28-5.44-1.28-12.8 0-7.68 1.28-12.8-1.28-5.44-1.28-12.8 0-7.68 1.28-12.8-1.28-5.44-1.28-12.8 0-7.68 1.28-12.8h-19.2q-1.28-5.44-1.28-12.8 0-7.68 1.28-12.8h44.8q1.28 5.12 1.28 12.8 0 7.36-1.28 12.8 1.28 5.12 1.28 12.8 0 7.36-1.28 12.8 1.28 5.12 1.28 12.8 0 7.36-1.28 12.8 1.28 5.12 1.28 12.8 0 7.36-1.28 12.8z"></path><rect width="79.36" height="179.2" x="-39.68" y="-89.6" fill="none" rx="0" ry="0" transform="translate(354 212)"></rect><path d="M533.975 185.9q0 7.36-1.28 12.8h-9.6q1.28 5.12 1.28 12.8 0 7.36-1.28 12.8h-9.6q1.28 5.12 1.28 12.8 0 7.36-1.28 12.8h-6.4q1.28 5.12 1.28 12.8 0 7.36-1.28 12.8h-12.8q1.28 5.12 1.28 12.8 0 7.36-1.28 12.8h-25.6q-1.28-5.44-1.28-12.8 0-7.68 1.28-12.8h-12.8q-1.28-5.44-1.28-12.8 0-7.68 1.28-12.8h-6.4q-1.28-5.44-1.28-12.8 0-7.68 1.28-12.8h-9.6q-1.28-5.44-1.28-12.8 0-7.68 1.28-12.8h-9.6q-1.28-5.44-1.28-12.8 0-7.68 1.28-12.8h25.6q1.28 5.12 1.28 12.8 0 7.36-1.28 12.8h9.6q1.28 5.12 1.28 12.8 0 7.36-1.28 12.8h9.6q1.28 5.12 1.28 12.8 0 7.36-1.28 12.8h12.8q-1.28-5.44-1.28-12.8 0-7.68 1.28-12.8h9.6q-1.28-5.44-1.28-12.8 0-7.68 1.28-12.8h9.6q-1.28-5.44-1.28-12.8 0-7.68 1.28-12.8h25.6q1.28 5.12 1.28 12.8"></path><rect width="104.96" height="128" x="-52.48" y="-64" fill="none" rx="0" ry="0" transform="translate(482 237.6)"></rect><path d="M661.975 211.5q0 7.36-1.28 12.8 1.28 5.12 1.28 12.8 0 7.36-1.28 12.8h-67.2q1.28 5.12 1.28 12.8 0 7.36-1.28 12.8h54.4q1.28 5.12 1.28 12.8 0 7.36-1.28 12.8h-64q-1.28-5.44-1.28-12.8 0-7.68 1.28-12.8h-16q-1.28-5.44-1.28-12.8 0-7.68 1.28-12.8h-9.6q-1.28-5.44-1.28-12.8 0-7.68 1.28-12.8h9.6q-1.28-5.44-1.28-12.8 0-7.68 1.28-12.8h16q-1.28-5.44-1.28-12.8 0-7.68 1.28-12.8h64q1.28 5.12 1.28 12.8 0 7.36-1.28 12.8h12.8q1.28 5.12 1.28 12.8m-26.88 12.8q-1.28-5.44-1.28-12.8 0-7.68 1.28-12.8h-41.6q1.28 5.12 1.28 12.8 0 7.36-1.28 12.8z"></path><rect width="104.96" height="128" x="-52.48" y="-64" fill="none" rx="0" ry="0" transform="translate(610 237.6)"></rect><path d="M788.695 275.5q1.28 5.12 1.28 12.8 0 7.36-1.28 12.8h-44.8q-1.28-5.44-1.28-12.8 0-7.68 1.28-12.8h-12.8q-1.28-5.44-1.28-12.8 0-7.68 1.28-12.8h-19.2q1.28 5.12 1.28 12.8 0 7.36-1.28 12.8 1.28 5.12 1.28 12.8 0 7.36-1.28 12.8h-25.6q-1.28-5.44-1.28-12.8 0-7.68 1.28-12.8-1.28-5.44-1.28-12.8 0-7.68 1.28-12.8-1.28-5.44-1.28-12.8 0-7.68 1.28-12.8-1.28-5.44-1.28-12.8 0-7.68 1.28-12.8-1.28-5.44-1.28-12.8 0-7.68 1.28-12.8-1.28-5.44-1.28-12.8 0-7.68 1.28-12.8-1.28-5.44-1.28-12.8 0-7.68 1.28-12.8h25.6q1.28 5.12 1.28 12.8 0 7.36-1.28 12.8 1.28 5.12 1.28 12.8 0 7.36-1.28 12.8 1.28 5.12 1.28 12.8 0 7.36-1.28 12.8 1.28 5.12 1.28 12.8 0 7.36-1.28 12.8h19.2q-1.28-5.44-1.28-12.8 0-7.68 1.28-12.8h12.8q-1.28-5.44-1.28-12.8 0-7.68 1.28-12.8h38.4q1.28 5.12 1.28 12.8 0 7.36-1.28 12.8h-25.6q1.28 5.12 1.28 12.8 0 7.36-1.28 12.8h-12.8q1.28 5.12 1.28 12.8 0 7.36-1.28 12.8h12.8q1.28 5.12 1.28 12.8 0 7.36-1.28 12.8z"></path><rect width="104.96" height="179.2" x="-52.48" y="-89.6" fill="none" rx="0" ry="0" transform="translate(738 212)"></rect><path d="M484.355 97.957V4.838H8.032v476.323h476.323v-93.119H476.6v85.364H15.789V12.594H476.6v85.363z"></path></svg></svg>